<svg width="94" height="25" viewBox="0 0 94 25" fill="none" xmlns="http://www.w3.org/2000/svg">
<g clip-path="url(#clip0_44_332)">
<path d="M9.5 11C7.1 11 4.16667 8.66667 3 7.5L1 9V13L2 16.5L5 19.5L8 20.5H11.5L15.5 18.5L18 15.5L18.5 11L17 7C15.5 8.33333 11.9 11 9.5 11Z" fill="#0C0C0C"/>
<circle cx="10" cy="12.5" r="8.83" stroke="#0C0C0C" stroke-width="2.34"/>
<mask id="mask0_44_332" style="mask-type:alpha" maskUnits="userSpaceOnUse" x="0" y="2" width="20" height="20">
<path d="M9.75 22C15.1348 22 19.5 17.6348 19.5 12.25C19.5 6.86522 15.1348 2.5 9.75 2.5C4.36522 2.5 0 6.86522 0 12.25C0 17.6348 4.36522 22 9.75 22Z" fill="black"/>
</mask>
<g mask="url(#mask0_44_332)">
<circle cx="9.5" cy="4" r="7.33" stroke="#0C0C0C" stroke-width="2.34"/>
</g>
</g>
<path d="M27.598 20V5.45455H32.7827C33.9096 5.45455 34.8447 5.64867 35.5881 6.03693C36.3362 6.42519 36.8949 6.96259 37.2642 7.64915C37.6335 8.33097 37.8182 9.11932 37.8182 10.0142C37.8182 10.9044 37.6312 11.688 37.2571 12.3651C36.8878 13.0374 36.3291 13.5606 35.581 13.9347C34.8376 14.3087 33.9025 14.4957 32.7756 14.4957H28.848V12.6065H32.5767C33.2869 12.6065 33.8646 12.5047 34.3097 12.3011C34.7595 12.0975 35.0885 11.8016 35.2969 11.4134C35.5052 11.0251 35.6094 10.5587 35.6094 10.0142C35.6094 9.46496 35.5028 8.98911 35.2898 8.58665C35.0814 8.18419 34.7524 7.87642 34.3026 7.66335C33.8575 7.44555 33.2727 7.33665 32.5483 7.33665H29.7926V20H27.598ZM34.7784 13.4375L38.3722 20H35.8722L32.3494 13.4375H34.7784ZM44.4832 20.2202C43.4084 20.2202 42.4827 19.9905 41.7062 19.5312C40.9344 19.0672 40.3378 18.4162 39.9164 17.5781C39.4997 16.7353 39.2914 15.7481 39.2914 14.6165C39.2914 13.4991 39.4997 12.5142 39.9164 11.6619C40.3378 10.8097 40.9249 10.1444 41.6778 9.66619C42.4353 9.18797 43.3208 8.94886 44.334 8.94886C44.9496 8.94886 45.5461 9.05066 46.1238 9.25426C46.7014 9.45786 47.2199 9.77746 47.6792 10.2131C48.1385 10.6487 48.5007 11.2145 48.7658 11.9105C49.031 12.6018 49.1636 13.4422 49.1636 14.4318V15.1847H40.4917V13.5938H47.0826C47.0826 13.035 46.969 12.5402 46.7417 12.1094C46.5144 11.6738 46.1948 11.3305 45.7829 11.0795C45.3757 10.8286 44.8975 10.7031 44.3482 10.7031C43.7516 10.7031 43.2308 10.8499 42.7857 11.1435C42.3454 11.4323 42.0045 11.8111 41.763 12.2798C41.5263 12.7438 41.4079 13.2481 41.4079 13.7926V15.0355C41.4079 15.7647 41.5357 16.3849 41.7914 16.8963C42.0518 17.4077 42.414 17.7983 42.8781 18.0682C43.3421 18.3333 43.8842 18.4659 44.5045 18.4659C44.9069 18.4659 45.2739 18.4091 45.6053 18.2955C45.9368 18.1771 46.2232 18.0019 46.4647 17.7699C46.7062 17.5379 46.8908 17.2514 47.0187 16.9105L49.0286 17.2727C48.8676 17.8646 48.5788 18.383 48.1621 18.8281C47.7502 19.2685 47.2317 19.6117 46.6067 19.858C45.9865 20.0994 45.2786 20.2202 44.4832 20.2202ZM51.2902 20V5.45455H53.4848V18.1108H60.0757V20H51.2902ZM68.9193 15.4759V9.09091H71.05V20H68.9619V18.1108H68.8483C68.5973 18.6932 68.1949 19.1785 67.6409 19.5668C67.0917 19.9503 66.4075 20.142 65.5884 20.142C64.8876 20.142 64.2673 19.9882 63.7276 19.6804C63.1925 19.3679 62.7711 18.9062 62.4634 18.2955C62.1603 17.6847 62.0088 16.9295 62.0088 16.0298V9.09091H64.1324V15.7741C64.1324 16.5175 64.3384 17.1094 64.7503 17.5497C65.1622 17.9901 65.6973 18.2102 66.3554 18.2102C66.7531 18.2102 67.1485 18.1108 67.5415 17.9119C67.9392 17.7131 68.2683 17.4124 68.5287 17.0099C68.7938 16.6075 68.9241 16.0961 68.9193 15.4759ZM75.1795 9.09091L77.5871 13.3381L80.0161 9.09091H82.3386L78.9366 14.5455L82.367 20H80.0445L77.5871 15.9233L75.1369 20H72.8073L76.2022 14.5455L72.8499 9.09091H75.1795ZM88.391 20.2202C87.3162 20.2202 86.3905 19.9905 85.614 19.5312C84.8422 19.0672 84.2456 18.4162 83.8242 17.5781C83.4076 16.7353 83.1992 15.7481 83.1992 14.6165C83.1992 13.4991 83.4076 12.5142 83.8242 11.6619C84.2456 10.8097 84.8327 10.1444 85.5856 9.66619C86.3432 9.18797 87.2286 8.94886 88.2418 8.94886C88.8574 8.94886 89.454 9.05066 90.0316 9.25426C90.6093 9.45786 91.1277 9.77746 91.587 10.2131C92.0463 10.6487 92.4085 11.2145 92.6737 11.9105C92.9388 12.6018 93.0714 13.4422 93.0714 14.4318V15.1847H84.3995V13.5938H90.9904C90.9904 13.035 90.8768 12.5402 90.6495 12.1094C90.4222 11.6738 90.1026 11.3305 89.6907 11.0795C89.2835 10.8286 88.8053 10.7031 88.256 10.7031C87.6594 10.7031 87.1386 10.8499 86.6935 11.1435C86.2532 11.4323 85.9123 11.8111 85.6708 12.2798C85.4341 12.7438 85.3157 13.2481 85.3157 13.7926V15.0355C85.3157 15.7647 85.4435 16.3849 85.6992 16.8963C85.9596 17.4077 86.3219 17.7983 86.7859 18.0682C87.2499 18.3333 87.792 18.4659 88.4123 18.4659C88.8147 18.4659 89.1817 18.4091 89.5131 18.2955C89.8446 18.1771 90.131 18.0019 90.3725 17.7699C90.614 17.5379 90.7987 17.2514 90.9265 16.9105L92.9364 17.2727C92.7754 17.8646 92.4866 18.383 92.07 18.8281C91.658 19.2685 91.1396 19.6117 90.5146 19.858C89.8943 20.0994 89.1864 20.2202 88.391 20.2202Z" fill="#0C0C0C"/>
<defs>
<clipPath id="clip0_44_332">
<rect width="20" height="20" fill="white" transform="translate(0 2.5)"/>
</clipPath>
</defs>
</svg>
